# Blender v2.79 (sub 0) OBJ File: ''
# www.blender.org
mtllib Floor02.mtl
o Plane
v -10.006930 -0.050627 0.000000
v -10.006930 -0.050627 -0.086201
v -10.006930 -0.050627 -0.043100
v -0.010900 -0.050627 0.000000
v -0.010900 -0.050627 -0.086201
v -0.010900 -0.050627 -0.043100
v -10.006930 -0.050627 -0.043100
v -0.010900 -0.050627 -0.043100
v -0.010900 -0.050627 -0.086201
v -0.010900 -0.050627 0.000000
v -10.006930 -0.050627 -0.086201
v -10.006930 -0.050627 0.000000
v -10.006930 4.116584 0.000000
v -10.006930 4.116584 -0.086201
v -10.006930 4.116584 -0.043101
v -0.010900 1.610982 0.000000
v -0.010900 1.610982 -0.086201
v -0.010900 1.610982 -0.043101
v -10.006930 4.116584 -0.043101
v -0.010900 1.610982 -0.043101
v -0.010900 1.610982 -0.086201
v -0.010900 1.610982 0.000000
v -10.006930 4.116584 -0.086201
v -10.006930 4.116584 0.000000
v -10.006930 4.116584 -0.064651
v -10.006930 4.116584 -0.021550
v -4.481421 2.507724 -0.086201
v -0.010900 1.610982 0.000000
v -4.481421 2.507724 -0.000000
v -10.006930 4.116584 -0.021550
v -0.010900 1.610982 -0.021550
v -0.010900 1.610982 -0.086201
v -4.481421 2.507724 -0.086201
v -4.481421 2.507724 -0.043101
v -10.006930 4.116584 -0.086201
v -10.006930 4.116584 0.000000
v -0.010900 1.610982 -0.064651
v -4.481421 2.507724 -0.000000
v -4.481421 2.507724 -0.043101
v -0.010900 1.610982 -0.021550
v -0.010900 1.610982 -0.064651
v -10.006930 4.116584 -0.064651
v -4.481421 2.507724 -0.021550
v -4.481421 2.507724 -0.064651
v -4.481421 2.507724 -0.021550
v -4.481421 2.507724 -0.000000
v -4.481421 2.507724 -0.086201
v -4.481421 2.507724 -0.064651
v -10.006930 4.116584 -0.075426
v -10.006930 4.116584 -0.032325
v -2.087912 1.690106 -0.086201
v -0.010900 1.610982 0.000000
v -7.534297 3.773712 0.000000
v -10.006930 4.116584 -0.032325
v -0.010900 1.610982 -0.032325
v -0.010900 1.610982 -0.086201
v -7.534297 3.773712 -0.086201
v -2.087912 1.690106 -0.043101
v -10.006930 4.116584 -0.086201
v -10.006930 4.116584 0.000000
v -0.010900 1.610982 -0.075426
v -2.087912 1.690106 -0.000000
v -2.087912 1.690106 -0.043101
v -0.010900 1.610982 -0.032325
v -0.010900 1.610982 -0.075426
v -10.006930 4.116584 -0.075426
v -10.006930 4.116584 -0.053876
v -10.006930 4.116584 -0.010775
v -7.534297 3.773712 -0.086201
v -0.010900 1.610982 0.000000
v -2.087912 1.690106 -0.000000
v -10.006930 4.116584 -0.010775
v -0.010900 1.610982 -0.010775
v -0.010900 1.610982 -0.086201
v -2.087912 1.690106 -0.086201
v -7.534297 3.773712 -0.043100
v -10.006930 4.116584 -0.086201
v -10.006930 4.116584 0.000000
v -0.010900 1.610982 -0.053876
v -7.534297 3.773712 0.000000
v -7.534297 3.773712 -0.043100
v -0.010900 1.610982 -0.010775
v -0.010900 1.610982 -0.053876
v -10.006930 4.116584 -0.053876
v -2.087912 1.690106 -0.021550
v -7.534297 3.773712 -0.021550
v -4.481421 2.507724 -0.010775
v -4.481421 2.507724 -0.032326
v -2.087912 1.690106 -0.064651
v -7.534297 3.773712 -0.064651
v -4.481421 2.507724 -0.053876
v -4.481421 2.507724 -0.075426
v -2.087912 1.690106 -0.021550
v -7.534297 3.773712 -0.021550
v -4.481421 2.507724 -0.010775
v -4.481421 2.507724 -0.032326
v -2.087912 1.690106 -0.000000
v -7.534297 3.773712 0.000000
v -4.481421 2.507724 -0.000000
v -4.481421 2.507724 -0.000000
v -2.087912 1.690106 -0.086201
v -7.534297 3.773712 -0.086201
v -4.481421 2.507724 -0.086201
v -4.481421 2.507724 -0.086201
v -2.087912 1.690106 -0.064651
v -7.534297 3.773712 -0.064651
v -4.481421 2.507724 -0.053876
v -4.481421 2.507724 -0.075426
v -7.534297 3.773712 -0.075426
v -7.534297 3.773712 -0.053876
v -2.087912 1.690106 -0.053876
v -7.534297 3.773712 -0.086201
v -7.534297 3.773712 -0.086201
v -2.087912 1.690106 -0.086201
v -7.534297 3.773712 0.000000
v -7.534297 3.773712 0.000000
v -2.087912 1.690106 -0.000000
v -7.534297 3.773712 -0.032325
v -7.534297 3.773712 -0.010775
v -2.087912 1.690106 -0.010775
v -7.534297 3.773712 -0.075426
v -7.534297 3.773712 -0.053876
v -2.087912 1.690106 -0.053876
v -7.534297 3.773712 -0.032325
v -7.534297 3.773712 -0.010775
v -2.087912 1.690106 -0.010775
v -2.087912 1.690106 -0.032325
v -2.087912 1.690106 -0.075426
v -2.087912 1.690106 -0.032325
v -2.087912 1.690106 -0.000000
v -2.087912 1.690106 -0.086201
v -2.087912 1.690106 -0.075426
vn 0.0000 1.0000 0.0000
vn 0.0000 0.0000 1.0000
vn -0.0381 -0.9993 0.0000
vn 1.0000 0.0000 0.0000
vn -1.0000 -0.0000 0.0000
vn -0.3831 -0.9237 0.0000
vn -0.1374 -0.9905 0.0000
vn -0.3233 -0.9463 0.0000
usemtl None
s off
f 3//1 8//1 9//1 2//1
f 2//2 9//2 5//2 11//2
f 12//2 4//2 10//2 1//2
f 12//1 4//1 6//1 7//1
f 7//1 6//1 5//1 11//1
f 1//1 10//1 8//1 3//1
f 132//3 75//3 21//3 65//3
f 131//2 51//2 17//2 56//2
f 130//2 62//2 22//2 52//2
f 129//3 58//3 18//3 64//3
f 128//3 51//3 17//3 61//3
f 127//3 63//3 20//3 55//3
f 56//2 74//2 32//2
f 78//2 60//2 36//2
f 1//4 3//4 15//4 50//4 26//4 68//4 13//4
f 6//5 4//5 16//5 82//5 40//5 64//5 18//5
f 12//4 7//4 19//4 54//4 30//4 72//4 24//4
f 5//5 6//5 18//5 79//5 37//5 61//5 17//5
f 9//5 8//5 20//5 83//5 41//5 65//5 21//5
f 8//5 10//5 22//5 73//5 31//5 55//5 20//5
f 52//2 70//2 28//2
f 77//2 59//2 35//2
f 7//4 11//4 23//4 66//4 42//4 84//4 19//4
f 3//4 2//4 14//4 49//4 25//4 67//4 15//4
f 126//3 85//3 31//3 73//3
f 125//6 86//6 43//6 87//6
f 124//6 81//6 39//6 88//6
f 123//3 89//3 37//3 79//3
f 122//6 90//6 44//6 91//6
f 121//6 69//6 27//6 92//6
f 120//3 93//3 40//3 82//3
f 119//6 94//6 45//6 95//6
f 118//6 76//6 34//6 96//6
f 117//2 97//2 28//2 70//2
f 116//2 98//2 46//2 99//2
f 115//2 80//2 38//2 100//2
f 114//2 101//2 32//2 74//2
f 113//2 102//2 47//2 103//2
f 112//2 69//2 27//2 104//2
f 111//3 105//3 41//3 83//3
f 110//6 106//6 48//6 107//6
f 109//6 57//6 33//6 108//6
f 106//6 109//6 108//6 48//6
f 25//7 49//7 109//7 106//7
f 49//7 14//7 57//7 109//7
f 81//6 110//6 107//6 39//6
f 15//7 67//7 110//7 81//7
f 67//7 25//7 106//7 110//7
f 63//3 111//3 83//3 20//3
f 39//8 107//8 111//8 63//8
f 107//8 48//8 105//8 111//8
f 102//2 112//2 104//2 47//2
f 35//2 59//2 112//2 102//2
f 59//2 23//2 69//2 112//2
f 57//2 113//2 103//2 33//2
f 14//2 77//2 113//2 57//2
f 77//2 35//2 102//2 113//2
f 75//2 114//2 74//2 21//2
f 33//2 103//2 114//2 75//2
f 103//2 47//2 101//2 114//2
f 98//2 115//2 100//2 46//2
f 36//2 60//2 115//2 98//2
f 60//2 13//2 80//2 115//2
f 53//2 116//2 99//2 29//2
f 24//2 78//2 116//2 53//2
f 78//2 36//2 98//2 116//2
f 71//2 117//2 70//2 16//2
f 29//2 99//2 117//2 71//2
f 99//2 46//2 97//2 117//2
f 94//6 118//6 96//6 45//6
f 30//7 54//7 118//7 94//7
f 54//7 19//7 76//7 118//7
f 53//6 119//6 95//6 29//6
f 24//7 72//7 119//7 53//7
f 72//7 30//7 94//7 119//7
f 71//3 120//3 82//3 16//3
f 29//8 95//8 120//8 71//8
f 95//8 45//8 93//8 120//8
f 90//6 121//6 92//6 44//6
f 42//7 66//7 121//7 90//7
f 66//7 23//7 69//7 121//7
f 76//6 122//6 91//6 34//6
f 19//7 84//7 122//7 76//7
f 84//7 42//7 90//7 122//7
f 58//3 123//3 79//3 18//3
f 34//8 91//8 123//8 58//8
f 91//8 44//8 89//8 123//8
f 86//6 124//6 88//6 43//6
f 26//7 50//7 124//7 86//7
f 50//7 15//7 81//7 124//7
f 80//6 125//6 87//6 38//6
f 13//7 68//7 125//7 80//7
f 68//7 26//7 86//7 125//7
f 62//3 126//3 73//3 22//3
f 38//8 87//8 126//8 62//8
f 87//8 43//8 85//8 126//8
f 2//2 11//2 23//2 59//2 77//2 14//2
f 10//2 4//2 16//2 70//2 52//2 22//2
f 12//2 1//2 13//2 60//2 78//2 24//2
f 5//2 9//2 21//2 74//2 56//2 17//2
f 85//3 127//3 55//3 31//3
f 43//8 88//8 127//8 85//8
f 88//8 39//8 63//8 127//8
f 89//3 128//3 61//3 37//3
f 44//8 92//8 128//8 89//8
f 92//8 27//8 51//8 128//8
f 93//3 129//3 64//3 40//3
f 45//8 96//8 129//8 93//8
f 96//8 34//8 58//8 129//8
f 97//2 130//2 52//2 28//2
f 46//2 100//2 130//2 97//2
f 100//2 38//2 62//2 130//2
f 101//2 131//2 56//2 32//2
f 47//2 104//2 131//2 101//2
f 104//2 27//2 51//2 131//2
f 105//3 132//3 65//3 41//3
f 48//8 108//8 132//8 105//8
f 108//8 33//8 75//8 132//8
