# Blender v2.79 (sub 0) OBJ File: ''
# www.blender.org
mtllib Floor02.mtl
o Plane.004
v -10.022194 0.025688 -0.043100
v -0.026163 0.025688 -0.043100
v -0.026163 0.025688 -0.086201
v -10.022194 0.025688 -0.086201
v -0.026163 0.025688 -0.086201
v -10.022194 0.025688 -0.086201
v -10.022194 0.025688 -0.000000
v -0.026163 0.025688 -0.000000
v -0.026163 0.025688 -0.000000
v -10.022194 0.025688 -0.000000
v -0.026163 0.025688 -0.043100
v -10.022194 0.025688 -0.043100
v -2.103175 1.861053 -0.075426
v -2.103175 1.861053 -0.086201
v -0.026163 1.311823 -0.086201
v -0.026163 1.311823 -0.075426
v -2.103175 1.861053 -0.086201
v -2.103175 1.861053 -0.086201
v -0.026163 1.311823 -0.086201
v -0.026163 1.311823 -0.086201
v -2.103175 1.861053 0.000000
v -2.103175 1.861053 0.000000
v -0.026163 1.311823 0.000000
v -0.026163 1.311823 0.000000
v -2.103175 1.861053 -0.032325
v -2.103175 1.861053 -0.043101
v -0.026163 1.311823 -0.043101
v -0.026163 1.311823 -0.032325
v -2.103175 1.861053 -0.075426
v -0.026163 1.311823 -0.075426
v -2.103175 1.861053 -0.032325
v -2.103175 1.861053 -0.043101
v -0.026163 1.311823 -0.043101
v -0.026163 1.311823 -0.032325
v -0.026163 1.311823 -0.086201
v -0.026163 1.311823 -0.086201
v -10.022194 4.266162 0.000001
v -10.022194 4.266162 0.000001
v -10.022194 4.266162 0.000001
v -10.022194 4.266162 -0.043100
v -10.022194 4.266162 -0.032324
v -10.022194 4.266162 -0.021549
v -10.022194 4.266162 -0.010774
v -10.022194 4.266162 0.000001
v -0.026163 1.311823 0.000000
v -0.026163 1.311823 -0.010775
v -0.026163 1.311823 -0.021550
v -10.022194 4.266162 -0.043100
v -10.022194 4.266162 -0.032324
v -10.022194 4.266162 -0.021549
v -10.022194 4.266162 -0.010774
v -10.022194 4.266162 0.000001
v -0.026163 1.311823 -0.053876
v -0.026163 1.311823 -0.064651
v -0.026163 1.311823 -0.053876
v -0.026163 1.311823 -0.064651
v -0.026163 1.311823 -0.010775
v -0.026163 1.311823 -0.021550
v -0.026163 1.311823 0.000000
v -0.026163 1.311823 0.000000
v -10.022194 4.266162 -0.086200
v -10.022194 4.266162 -0.086200
v -10.022194 4.266162 -0.086200
v -10.022194 4.266162 -0.086200
v -10.022194 4.266162 -0.075425
v -10.022194 4.266162 -0.064650
v -10.022194 4.266162 -0.053875
v -10.022194 4.266162 -0.086200
v -10.022194 4.266162 -0.075425
v -10.022194 4.266162 -0.064650
v -10.022194 4.266162 -0.053875
v -2.103175 1.861053 -0.010775
v -2.103175 1.861053 -0.021550
v -7.549561 3.413500 -0.010774
v -7.549561 3.413500 -0.021549
v -4.359316 2.489407 -0.021550
v -4.359316 2.489407 -0.010775
v -7.549561 3.413500 -0.032324
v -7.549561 3.413500 -0.043099
v -4.359316 2.489407 -0.043101
v -4.359316 2.489407 -0.032326
v -2.103175 1.861053 -0.053876
v -2.103175 1.861053 -0.064651
v -7.549561 3.413500 -0.053875
v -7.549561 3.413500 -0.064650
v -4.359316 2.489407 -0.064651
v -4.359316 2.489407 -0.053876
v -7.549561 3.413500 -0.075425
v -7.549561 3.413500 -0.086200
v -4.359316 2.489407 -0.086201
v -4.359316 2.489407 -0.075426
v -2.103175 1.861053 -0.010775
v -2.103175 1.861053 -0.021550
v -7.549561 3.413500 -0.010774
v -7.549561 3.413500 -0.021549
v -4.359316 2.489407 -0.021550
v -4.359316 2.489407 -0.010775
v -7.549561 3.413500 -0.032324
v -7.549561 3.413500 -0.043099
v -4.359316 2.489407 -0.043101
v -4.359316 2.489407 -0.032326
v -2.103175 1.861053 0.000000
v -2.103175 1.861053 0.000000
v -7.549561 3.413500 0.000001
v -7.549561 3.413500 0.000001
v -4.359316 2.489407 0.000000
v -4.359316 2.489407 0.000000
v -7.549561 3.413500 0.000001
v -7.549561 3.413500 0.000001
v -4.359316 2.489407 0.000000
v -4.359316 2.489407 0.000000
v -2.103175 1.861053 -0.086201
v -2.103175 1.861053 -0.086201
v -7.549561 3.413500 -0.086200
v -7.549561 3.413500 -0.086200
v -4.359316 2.489407 -0.086201
v -4.359316 2.489407 -0.086201
v -7.549561 3.413500 -0.086200
v -4.359316 2.489407 -0.086201
v -2.103175 1.861053 -0.053876
v -2.103175 1.861053 -0.064651
v -7.549561 3.413500 -0.053875
v -7.549561 3.413500 -0.064650
v -4.359316 2.489407 -0.064651
v -4.359316 2.489407 -0.053876
v -7.549561 3.413500 -0.075425
v -7.549561 3.413500 -0.086200
v -4.359316 2.489407 -0.086201
v -4.359316 2.489407 -0.075426
v -7.549561 3.413500 0.000001
v -4.359316 2.489407 0.000000
v -2.103175 1.861053 0.000000
vn 0.0000 1.0000 0.0000
vn 0.0000 0.0000 1.0000
vn -0.2556 -0.9668 0.0000
vn 1.0000 -0.0000 0.0000
vn -1.0000 0.0000 0.0000
vn -0.2782 -0.9605 0.0000
vn -0.3260 -0.9454 0.0000
vn -0.2683 -0.9633 0.0000
usemtl None.002
s 1
f 1//1 2//1 3//1 4//1
f 4//2 3//2 5//2 6//2
f 7//2 8//2 9//2 10//2
f 7//1 8//1 11//1 12//1
f 12//1 11//1 5//1 6//1
f 10//1 9//1 2//1 1//1
f 13//3 14//3 15//3 16//3
f 17//2 18//2 19//2 20//2
f 21//2 22//2 23//2 24//2
f 25//3 26//3 27//3 28//3
f 29//3 18//3 19//3 30//3
f 31//3 32//3 33//3 34//3
f 20//2 35//2 36//2
f 37//2 38//2 39//2
f 10//4 1//4 40//4 41//4 42//4 43//4 44//4
f 11//5 8//5 45//5 46//5 47//5 28//5 27//5
f 7//4 12//4 48//4 49//4 50//4 51//4 52//4
f 5//5 11//5 27//5 53//5 54//5 30//5 19//5
f 3//5 2//5 33//5 55//5 56//5 16//5 15//5
f 2//5 9//5 23//5 57//5 58//5 34//5 33//5
f 24//2 59//2 60//2
f 61//2 62//2 63//2
f 12//4 6//4 64//4 65//4 66//4 67//4 48//4
f 1//4 4//4 68//4 69//4 70//4 71//4 40//4
f 72//3 73//3 58//3 57//3
f 74//6 75//6 76//6 77//6
f 78//6 79//6 80//6 81//6
f 82//3 83//3 54//3 53//3
f 84//6 85//6 86//6 87//6
f 88//6 89//6 90//6 91//6
f 92//3 93//3 47//3 46//3
f 94//6 95//6 96//6 97//6
f 98//6 99//6 100//6 101//6
f 102//2 103//2 60//2 59//2
f 104//2 105//2 106//2 107//2
f 108//2 109//2 110//2 111//2
f 112//2 113//2 36//2 35//2
f 114//2 115//2 116//2 117//2
f 118//2 89//2 90//2 119//2
f 120//3 121//3 56//3 55//3
f 122//6 123//6 124//6 125//6
f 126//6 127//6 128//6 129//6
f 123//6 126//6 129//6 124//6
f 70//7 69//7 126//7 123//7
f 69//7 68//7 127//7 126//7
f 79//6 122//6 125//6 80//6
f 40//7 71//7 122//7 79//7
f 71//7 70//7 123//7 122//7
f 32//3 120//3 55//3 33//3
f 80//8 125//8 120//8 32//8
f 125//8 124//8 121//8 120//8
f 115//2 118//2 119//2 116//2
f 63//2 62//2 118//2 115//2
f 62//2 64//2 89//2 118//2
f 127//2 114//2 117//2 128//2
f 68//2 61//2 114//2 127//2
f 61//2 63//2 115//2 114//2
f 14//2 112//2 35//2 15//2
f 128//2 117//2 112//2 14//2
f 117//2 116//2 113//2 112//2
f 105//2 108//2 111//2 106//2
f 39//2 38//2 108//2 105//2
f 38//2 44//2 109//2 108//2
f 130//2 104//2 107//2 131//2
f 52//2 37//2 104//2 130//2
f 37//2 39//2 105//2 104//2
f 132//2 102//2 59//2 45//2
f 131//2 107//2 102//2 132//2
f 107//2 106//2 103//2 102//2
f 95//6 98//6 101//6 96//6
f 50//7 49//7 98//7 95//7
f 49//7 48//7 99//7 98//7
f 130//6 94//6 97//6 131//6
f 52//7 51//7 94//7 130//7
f 51//7 50//7 95//7 94//7
f 132//3 92//3 46//3 45//3
f 131//8 97//8 92//8 132//8
f 97//8 96//8 93//8 92//8
f 85//6 88//6 91//6 86//6
f 66//7 65//7 88//7 85//7
f 65//7 64//7 89//7 88//7
f 99//6 84//6 87//6 100//6
f 48//7 67//7 84//7 99//7
f 67//7 66//7 85//7 84//7
f 26//3 82//3 53//3 27//3
f 100//8 87//8 82//8 26//8
f 87//8 86//8 83//8 82//8
f 75//6 78//6 81//6 76//6
f 42//7 41//7 78//7 75//7
f 41//7 40//7 79//7 78//7
f 109//6 74//6 77//6 110//6
f 44//7 43//7 74//7 109//7
f 43//7 42//7 75//7 74//7
f 22//3 72//3 57//3 23//3
f 110//8 77//8 72//8 22//8
f 77//8 76//8 73//8 72//8
f 4//2 6//2 64//2 62//2 61//2 68//2
f 9//2 8//2 45//2 59//2 24//2 23//2
f 7//2 10//2 44//2 38//2 37//2 52//2
f 5//2 3//2 15//2 35//2 20//2 19//2
f 73//3 31//3 34//3 58//3
f 76//8 81//8 31//8 73//8
f 81//8 80//8 32//8 31//8
f 83//3 29//3 30//3 54//3
f 86//8 91//8 29//8 83//8
f 91//8 90//8 18//8 29//8
f 93//3 25//3 28//3 47//3
f 96//8 101//8 25//8 93//8
f 101//8 100//8 26//8 25//8
f 103//2 21//2 24//2 60//2
f 106//2 111//2 21//2 103//2
f 111//2 110//2 22//2 21//2
f 113//2 17//2 20//2 36//2
f 116//2 119//2 17//2 113//2
f 119//2 90//2 18//2 17//2
f 121//3 13//3 16//3 56//3
f 124//8 129//8 13//8 121//8
f 129//8 128//8 14//8 13//8
