# Blender v2.79 (sub 0) OBJ File: ''
# www.blender.org
mtllib Mesh01.mtl
o Plane
v 5.108429 -4.973245 -0.000000
v 4.286115 -4.921019 0.000000
v 5.108429 5.013326 -0.000000
v -4.899446 5.013326 0.000000
v 2.161460 -2.737690 0.000000
v 1.258147 -1.502728 0.000000
v -1.276980 1.393386 0.000000
v 2.466513 -3.199421 0.000000
v 5.108429 -4.973245 -0.086201
v 4.286115 -4.921019 -0.086201
v 5.108429 5.013326 -0.086201
v -4.899446 5.013326 -0.086201
v 2.161460 -2.737690 -0.086201
v 1.258147 -1.502728 -0.086201
v -1.276980 1.393386 -0.086201
v 2.466513 -3.199421 -0.086201
v 4.286115 -4.921019 -0.043101
v 3.376314 -4.199489 0.000000
v 3.376314 -4.199489 -0.086201
v 2.466513 -3.199421 -0.043100
v 4.286115 -4.921019 -0.021550
v 4.286115 -4.921019 -0.064651
vn 0.0000 0.0000 1.0000
vn -0.0000 -0.0000 -1.0000
vn -0.7524 -0.6587 0.0000
vn 0.0000 1.0000 0.0000
vn -0.8344 -0.5512 0.0000
vn -0.7069 -0.7074 0.0000
vn -0.8071 -0.5904 0.0000
vn -0.0634 -0.9980 0.0000
vn 1.0000 0.0000 0.0000
vn -0.6873 -0.7264 0.0000
usemtl None
s off
f 3//1 4//1 7//1 6//1 5//1 8//1 18//1 2//1 1//1
f 11//2 9//2 10//2 19//2 16//2 13//2 14//2 15//2 12//2
f 7//3 15//3 14//3 6//3
f 3//4 11//4 12//4 4//4
f 5//5 13//5 16//5 20//5 8//5
f 4//6 12//6 15//6 7//6
f 6//7 14//7 13//7 5//7
f 2//8 21//8 17//8 22//8 10//8 9//8 1//8
f 1//9 9//9 11//9 3//9
f 8//10 20//10 16//10 19//10 10//10 22//10 17//10 21//10 2//10 18//10
