# Blender v2.79 (sub 0) OBJ File: ''
# www.blender.org
mtllib Mesh06.mtl
o Plane
v -4.947376 5.013326 0.000000
v -4.947376 5.013326 -0.086201
v -4.947376 0.024102 -0.005387
v -4.947376 0.024102 -0.048488
v 5.075028 5.013326 0.000000
v 5.075028 5.013326 -0.086201
v -4.947376 0.024102 -0.059263
v 5.075028 5.013326 -0.043100
v -4.947376 0.024102 -0.026938
v -0.947206 0.776881 0.000000
v -4.947376 0.024102 -0.010775
v -4.947376 5.013326 -0.043100
v -4.947376 0.024102 -0.075426
v -4.947376 0.024102 -0.032325
v -0.947206 0.776881 -0.086201
v -4.947376 0.024102 -0.053876
v 1.997974 2.276945 0.000000
v -4.947376 0.024102 -0.064651
v -4.947376 0.024102 -0.021550
v 1.997974 2.276945 -0.086201
v 5.075028 5.013326 -0.021550
v 5.075028 5.013326 -0.064651
v -4.947376 0.024102 -0.043100
v -4.947376 0.024102 -0.086201
v -4.947376 0.024102 0.000000
v -2.771460 0.290597 -0.086201
v -4.947376 0.024102 -0.037713
v -4.947376 0.024102 -0.080813
v -4.947376 0.024102 -0.016163
v -2.771460 0.290597 0.000000
v -4.947376 0.024102 -0.070038
vn 0.0000 1.0000 0.0000
vn -1.0000 -0.0000 0.0000
vn 0.4456 -0.8952 -0.0000
usemtl None
s off
f 2//1 12//1 1//1 5//1 21//1 8//1 22//1 6//1
f 12//2 2//2 24//2 28//2 13//2 31//2 18//2 7//2 16//2 4//2 23//2
f 6//3 22//3 8//3 21//3 5//3 17//3 10//3 30//3 25//3 3//3 11//3 29//3 19//3 9//3 14//3 27//3 23//3 4//3 16//3 7//3 18//3 31//3 13//3 28//3 24//3 26//3 15//3 20//3
f 1//2 12//2 23//2 27//2 14//2 9//2 19//2 29//2 11//2 3//2 25//2
